<svg width="214" height="61" viewBox="0 0 214 61" fill="none" xmlns="http://www.w3.org/2000/svg">
<g filter="url(#filter0_dd_46_7131)">
<path fill-rule="evenodd" clip-rule="evenodd" d="M183.323 36.0937C183.323 36.9385 183.03 37.6534 182.445 38.2382C181.893 38.7906 181.194 39.0668 180.349 39.0668C179.537 39.0668 178.855 38.7906 178.302 38.2382C177.75 37.6534 177.474 36.9385 177.474 36.0937V5.97307C177.474 5.12826 177.75 4.42967 178.302 3.87729C178.887 3.29242 179.602 2.99999 180.447 2.99999C181.292 2.99999 181.974 3.29242 182.494 3.87729C183.046 4.42967 183.323 5.12826 183.323 5.97307V36.0937ZM69.9337 38.1895C72.0782 39.0993 74.3852 39.5542 76.8546 39.5542C78.8042 39.5542 80.6563 39.2942 82.4109 38.7744C84.198 38.222 85.8388 37.4909 87.3335 36.5811C87.7234 36.3212 88.0646 35.98 88.357 35.5576C88.682 35.1352 88.8444 34.5991 88.8444 33.9492V23.6166C88.8444 22.7717 88.5682 22.0732 88.0159 21.5208C87.4635 20.9359 86.7649 20.6435 85.9201 20.6435H77.9269C77.0821 20.6435 76.3673 20.9197 75.7824 21.472C75.23 22.0244 74.9538 22.723 74.9538 23.5678C74.9538 24.4126 75.23 25.1112 75.7824 25.6636C76.3673 26.216 77.0821 26.4921 77.9269 26.4921H82.5084V32.8077C81.836 33.0526 81.0237 33.2544 80.0714 33.4131C78.9017 33.608 77.8294 33.7055 76.8546 33.7055C74.7426 33.7055 72.8093 33.1856 71.0547 32.1459C69.3326 31.0736 67.9517 29.6439 66.9119 27.8568C65.9046 26.0697 65.401 24.1202 65.401 22.0082C65.401 19.8637 65.9046 17.9141 66.9119 16.1595C67.9517 14.3724 69.3326 12.959 71.0547 11.9192C72.8093 10.847 74.7426 10.3108 76.8546 10.3108C77.8619 10.3108 78.8204 10.4083 79.7302 10.6033C80.64 10.7982 81.5011 11.0744 82.3134 11.4318C82.5733 11.5618 82.8333 11.6593 83.0932 11.7243C83.3857 11.7892 83.6618 11.8217 83.9218 11.8217C84.7341 11.8217 85.4002 11.5131 85.9201 10.8957C86.44 10.2783 86.6999 9.57975 86.6999 8.79992C86.6999 8.34502 86.5699 7.90637 86.31 7.48397C86.0825 7.02907 85.7251 6.67166 85.2377 6.41172C84.0355 5.76186 82.7196 5.27447 81.2899 4.94955C79.8602 4.62462 78.3818 4.46216 76.8546 4.46216C74.3852 4.46216 72.0782 4.91706 69.9337 5.82685C67.7892 6.73664 65.9046 8.00385 64.28 9.62848C62.6554 11.2206 61.3719 13.0727 60.4296 15.1847C59.5198 17.2967 59.0649 19.5712 59.0649 22.0082C59.0649 24.4451 59.5198 26.7196 60.4296 28.8316C61.3719 30.9436 62.6554 32.812 64.28 34.4366C65.9046 36.0287 67.7892 37.2797 69.9337 38.1895ZM118.687 33.1206C119.889 31.0736 120.49 28.7179 120.49 26.0535C120.49 23.3891 119.889 21.0496 118.687 19.0351C117.517 16.9881 115.925 15.3959 113.91 14.2587C111.928 13.0889 109.703 12.5041 107.233 12.5041C104.764 12.5041 102.522 13.0889 100.507 14.2587C98.5251 15.3959 96.9329 16.9881 95.7307 19.0351C94.561 21.0496 93.9761 23.3891 93.9761 26.0535C93.9761 28.7179 94.561 31.0736 95.7307 33.1206C96.9329 35.1352 98.5251 36.7111 100.507 37.8483C102.522 38.9856 104.764 39.5542 107.233 39.5542C109.703 39.5542 111.928 38.9856 113.91 37.8483C115.925 36.7111 117.517 35.1352 118.687 33.1206ZM113.618 21.7645C114.3 22.9667 114.641 24.3964 114.641 26.0535C114.641 27.6781 114.3 29.1078 113.618 30.3425C112.968 31.5447 112.074 32.487 110.937 33.1694C109.832 33.8517 108.598 34.1929 107.233 34.1929C105.868 34.1929 104.617 33.8517 103.48 33.1694C102.375 32.487 101.482 31.5447 100.8 30.3425C100.15 29.1078 99.8248 27.6781 99.8248 26.0535C99.8248 24.3964 100.15 22.9667 100.8 21.7645C101.482 20.5298 102.375 19.5712 103.48 18.8889C104.617 18.2065 105.868 17.8654 107.233 17.8654C108.598 17.8654 109.832 18.2065 110.937 18.8889C112.074 19.5712 112.968 20.5298 113.618 21.7645ZM126.876 13.4789H129.118V10.3596C129.118 9.51476 129.394 8.81617 129.947 8.26379C130.531 7.67893 131.246 7.38649 132.091 7.38649C132.936 7.38649 133.618 7.67893 134.138 8.26379C134.69 8.81617 134.967 9.51476 134.967 10.3596V13.4789H138.427C139.207 13.4789 139.857 13.7388 140.377 14.2587C140.897 14.7786 141.156 15.4284 141.156 16.2082C141.156 16.9556 140.897 17.5892 140.377 18.1091C139.857 18.5964 139.207 18.8401 138.427 18.8401H134.967V32.0484C134.967 32.5033 135.048 32.8769 135.21 33.1694C135.405 33.4618 135.649 33.673 135.941 33.803C136.266 33.933 136.608 33.9979 136.965 33.9979C137.355 33.9979 137.712 33.933 138.037 33.803C138.362 33.6405 138.736 33.5593 139.158 33.5593C139.613 33.5593 140.019 33.7705 140.377 34.1929C140.767 34.6153 140.962 35.2002 140.962 35.9475C140.962 36.8573 140.458 37.6046 139.451 38.1895C138.476 38.7744 137.42 39.0668 136.283 39.0668C135.6 39.0668 134.837 39.018 133.992 38.9206C133.18 38.7906 132.4 38.5144 131.652 38.092C130.938 37.6371 130.336 36.9548 129.849 36.045C129.362 35.1352 129.118 33.8842 129.118 32.2921V18.8401H126.876C126.096 18.8401 125.446 18.5802 124.926 18.0603C124.407 17.5404 124.147 16.8906 124.147 16.1108C124.147 15.3634 124.407 14.7461 124.926 14.2587C125.446 13.7388 126.096 13.4789 126.876 13.4789ZM152.332 37.8483C154.379 38.9856 156.784 39.5542 159.546 39.5542C161.17 39.5542 162.746 39.2942 164.273 38.7744C165.8 38.222 166.986 37.5884 167.831 36.8735C168.741 36.1587 169.196 35.3626 169.196 34.4853C169.196 33.8355 168.952 33.2669 168.465 32.7795C168.01 32.2921 167.425 32.0484 166.71 32.0484C166.19 32.0484 165.638 32.1946 165.053 32.487C164.696 32.682 164.289 32.9257 163.835 33.2181C163.412 33.4781 162.844 33.7055 162.129 33.9005C161.414 34.0954 160.455 34.1929 159.253 34.1929C157.953 34.1929 156.719 33.8842 155.549 33.2669C154.412 32.617 153.469 31.691 152.722 30.4887C152.303 29.7656 152.007 28.9533 151.834 28.0518H167.929C168.708 28.0518 169.391 27.8081 169.976 27.3207C170.561 26.8333 170.869 26.1997 170.902 25.4199C170.902 23.6653 170.561 22.0082 169.878 20.4485C169.228 18.8889 168.335 17.5242 167.198 16.3545C166.06 15.1522 164.744 14.2099 163.25 13.5276C161.788 12.8453 160.228 12.5041 158.571 12.5041C156.426 12.5041 154.395 13.0565 152.478 14.1612C150.561 15.266 149.002 16.8581 147.799 18.9376C146.63 20.9846 146.045 23.4703 146.045 26.3947C146.045 28.8966 146.581 31.1386 147.653 33.1206C148.758 35.1027 150.318 36.6786 152.332 37.8483ZM151.89 23.1779C151.969 22.7741 152.068 22.4004 152.186 22.0569C152.543 21.0171 153.031 20.1886 153.648 19.5712C154.265 18.9539 154.997 18.5152 155.841 18.2553C156.686 17.9953 157.596 17.8654 158.571 17.8654C159.578 17.8654 160.52 18.0928 161.398 18.5477C162.307 18.9701 163.055 19.555 163.64 20.3023C164.257 21.0496 164.598 21.8944 164.663 22.8367V23.1779H151.89ZM199.975 34.8582C200.033 35.1983 200.063 35.5479 200.063 35.9045C200.063 37.2502 199.634 38.4956 198.904 39.511C199.308 39.5398 199.711 39.5542 200.115 39.5542C201.642 39.5542 203.136 39.2617 204.599 38.6769C206.061 38.0595 207.279 37.166 208.254 35.9962C209.229 34.8265 209.716 33.4131 209.716 31.756C209.716 30.3263 209.456 29.1565 208.936 28.2467C208.416 27.3045 207.734 26.5409 206.889 25.956C206.044 25.3712 205.118 24.9 204.111 24.5426C203.104 24.1852 202.113 23.8765 201.138 23.6166C200.196 23.3566 199.302 23.0967 198.457 22.8367C197.645 22.5443 196.995 22.1869 196.508 21.7645C196.021 21.3096 195.777 20.7085 195.777 19.9611C195.777 19.1488 195.988 18.564 196.41 18.2065C196.833 17.8166 197.32 17.5729 197.873 17.4754C198.457 17.3455 198.994 17.2805 199.481 17.2805C200.683 17.2805 201.739 17.4917 202.649 17.9141C203.591 18.3365 204.339 18.9051 204.891 19.62C205.313 20.0099 205.85 20.2373 206.499 20.3023C207.149 20.3348 207.718 20.1561 208.205 19.7662C208.888 19.2138 209.196 18.5964 209.131 17.9141C209.066 17.2318 208.855 16.6469 208.498 16.1595C207.815 15.2822 206.971 14.5836 205.963 14.0637C204.956 13.5114 203.9 13.1214 202.795 12.894C201.69 12.6341 200.634 12.5041 199.627 12.5041C198.035 12.5041 196.508 12.8128 195.046 13.4301C193.616 14.0475 192.446 14.9248 191.537 16.062C190.627 17.1993 190.172 18.5802 190.172 20.2048C190.172 21.6345 190.448 22.8205 191 23.7628C191.553 24.7051 192.268 25.4686 193.145 26.0535C194.022 26.6059 194.981 27.0608 196.021 27.4182C197.093 27.7756 198.133 28.1005 199.14 28.393C200.115 28.6529 200.992 28.9291 201.772 29.2215C202.584 29.514 203.234 29.8714 203.721 30.2938C204.209 30.7162 204.452 31.2848 204.452 31.9996C204.452 32.8445 204.225 33.4781 203.77 33.9005C203.348 34.2904 202.844 34.5503 202.259 34.6803C201.674 34.7778 201.138 34.8428 200.651 34.8752C200.42 34.8752 200.195 34.8695 199.975 34.8582Z" fill="white"/>
<path d="M193.945 40.1667C196.261 40.1667 198.138 38.2892 198.138 35.9732C198.138 33.6572 196.261 31.7797 193.945 31.7797C191.629 31.7797 189.751 33.6572 189.751 35.9732C189.751 38.2892 191.629 40.1667 193.945 40.1667Z" fill="white"/>
<path fill-rule="evenodd" clip-rule="evenodd" d="M43.0515 14.5504C43.3887 15.2119 43.0697 16.0051 42.3876 16.2985L37.275 18.4974C36.5929 18.7908 35.8084 18.471 35.4426 17.825C34.1956 15.6229 32.2943 13.8476 29.987 12.7564C27.2727 11.4727 24.1832 11.2239 21.2984 12.0568C18.4137 12.8897 15.9322 14.747 14.3199 17.2799C12.9493 19.433 12.2869 21.9484 12.4055 24.4763C12.4403 25.218 11.947 25.9067 11.2135 26.022L5.71564 26.8866C4.98216 27.0019 4.28943 26.5008 4.2222 25.7614C3.81126 21.2413 4.90595 16.6974 7.35674 12.8474C10.0489 8.6182 14.1922 5.51718 19.0088 4.12652C23.8253 2.73585 28.9839 3.15119 33.5159 5.29455C37.6417 7.24576 40.9899 10.5069 43.0515 14.5504ZM29.4882 53.6833C35.6669 47.6118 43.4739 33.3088 45.2453 24.8294C45.5478 23.3816 43.7458 23.3816 43.7458 23.3816L38.5286 23.3829C38.5035 23.3829 38.4787 23.3837 38.4541 23.3854H28.547C27.276 23.3854 26.6299 24.9155 27.5155 25.8286L33.5219 32.022C33.6604 32.1648 33.6591 32.3932 33.5146 32.5298C32.1411 33.8291 30.5195 34.9582 28.6988 35.5329C25.8549 36.4306 23.2144 36.3935 20.6841 35.5329C18.4954 34.7884 16.4441 33.3095 14.9963 31.3963C14.6142 30.9387 13.9847 31.0544 13.4967 31.3963L8.61631 34.7864C7.7838 35.4797 8.37349 36.2742 8.37349 36.2742C8.37349 36.2742 17.5845 50.0415 21.2926 53.6833C22.4203 54.8071 23.8789 55.4282 25.3904 55.4282C26.9019 55.4282 28.3606 54.8071 29.4882 53.6833Z" fill="white"/>
<path d="M42.2499 16.2985C42.9319 16.0051 43.251 15.2119 42.9137 14.5504C40.8521 10.5069 37.5039 7.24575 33.3782 5.29454C28.8462 3.15118 23.6876 2.73584 18.871 4.1265C14.0544 5.51717 9.91112 8.61818 7.21899 12.8473C4.7682 16.6974 3.67351 21.2412 4.08445 25.7614C4.15168 26.5008 4.84441 27.0019 5.57789 26.8865L11.0758 26.022C11.8093 25.9067 12.3026 25.218 12.2678 24.4763C12.1491 21.9484 12.8115 19.433 14.1821 17.2798C15.7945 14.7469 18.276 12.8897 21.1607 12.0568C24.0454 11.2239 27.1349 11.4727 29.8492 12.7564C32.1566 13.8476 34.0578 15.6228 35.3048 17.8249C35.6707 18.471 36.4552 18.7908 37.1373 18.4974L42.2499 16.2985Z" fill="white" fill-opacity="0.1"/>
<path d="M62.3659 47.3212C62.5 47.3212 62.6143 47.3686 62.709 47.4632C62.8037 47.55 62.851 47.6644 62.851 47.8064V55.1189C62.851 55.253 62.7997 55.3674 62.6972 55.462C62.6025 55.5567 62.4881 55.604 62.354 55.604C62.2042 55.604 62.0858 55.5567 61.9991 55.462C61.9123 55.3674 61.8689 55.253 61.8689 55.1189V47.8064C61.8689 47.6644 61.9162 47.55 62.0109 47.4632C62.1055 47.3686 62.2239 47.3212 62.3659 47.3212ZM67.8207 47.3212C67.9627 47.3212 68.077 47.3686 68.1638 47.4632C68.2585 47.55 68.3058 47.6644 68.3058 47.8064V55.1189C68.3058 55.253 68.2585 55.3674 68.1638 55.462C68.0691 55.5567 67.9508 55.604 67.8088 55.604C67.6747 55.604 67.5603 55.5567 67.4657 55.462C67.371 55.3674 67.3237 55.253 67.3237 55.1189V47.8064C67.3237 47.6644 67.371 47.55 67.4657 47.4632C67.5682 47.3686 67.6866 47.3212 67.8207 47.3212ZM62.3185 50.9302H67.8325L67.8207 51.8531H62.283L62.3185 50.9302ZM82.1111 51.4626C82.1111 52.07 82.0125 52.634 81.8153 53.1547C81.6181 53.6674 81.342 54.1171 80.987 54.5036C80.6321 54.8901 80.21 55.1899 79.7209 55.4029C79.2319 55.6158 78.6994 55.7223 78.1236 55.7223C77.5398 55.7223 77.0034 55.6158 76.5143 55.4029C76.0331 55.1899 75.6151 54.8901 75.2601 54.5036C74.9051 54.1171 74.629 53.6674 74.4318 53.1547C74.2346 52.634 74.136 52.07 74.136 51.4626C74.136 50.8473 74.2346 50.2833 74.4318 49.7706C74.629 49.2499 74.9051 48.8003 75.2601 48.4217C75.6151 48.0351 76.0331 47.7354 76.5143 47.5224C77.0034 47.3094 77.5398 47.2029 78.1236 47.2029C78.6994 47.2029 79.2319 47.3094 79.7209 47.5224C80.21 47.7354 80.6321 48.0351 80.987 48.4217C81.342 48.8003 81.6181 49.2499 81.8153 49.7706C82.0125 50.2833 82.1111 50.8473 82.1111 51.4626ZM81.0935 51.4626C81.0935 50.8158 80.9634 50.2439 80.703 49.7469C80.4506 49.2499 80.1035 48.8595 79.6618 48.5755C79.22 48.2915 78.7073 48.1495 78.1236 48.1495C77.5398 48.1495 77.0231 48.2915 76.5735 48.5755C76.1317 48.8595 75.7847 49.2499 75.5322 49.7469C75.2798 50.2439 75.1536 50.8158 75.1536 51.4626C75.1536 52.1016 75.2798 52.6735 75.5322 53.1783C75.7847 53.6753 76.1317 54.0658 76.5735 54.3498C77.0231 54.6337 77.5398 54.7757 78.1236 54.7757C78.7073 54.7757 79.22 54.6337 79.6618 54.3498C80.1035 54.0658 80.4506 53.6753 80.703 53.1783C80.9634 52.6735 81.0935 52.1016 81.0935 51.4626ZM90.2772 55.604C90.1352 55.604 90.0169 55.5567 89.9222 55.462C89.8276 55.3674 89.7803 55.253 89.7803 55.1189V47.8064H90.786V55.1189C90.786 55.253 90.7387 55.3674 90.644 55.462C90.5494 55.5567 90.4271 55.604 90.2772 55.604ZM87.5321 48.2205C87.398 48.2205 87.2836 48.1811 87.1889 48.1022C87.1022 48.0154 87.0588 47.905 87.0588 47.7709C87.0588 47.6368 87.1022 47.5303 87.1889 47.4514C87.2836 47.3646 87.398 47.3212 87.5321 47.3212H93.0342C93.1683 47.3212 93.2827 47.3646 93.3773 47.4514C93.472 47.5303 93.5193 47.6368 93.5193 47.7709C93.5193 47.9129 93.472 48.0233 93.3773 48.1022C93.2827 48.1811 93.1683 48.2205 93.0342 48.2205H87.5321ZM99.6761 47.3212H103.889C104.023 47.3212 104.137 47.3646 104.232 47.4514C104.326 47.5382 104.374 47.6486 104.374 47.7827C104.374 47.9168 104.326 48.0272 104.232 48.114C104.137 48.1929 104.023 48.2323 103.889 48.2323H100.078L100.185 48.0312V51.0248L100.067 50.8947H103.356C103.49 50.8947 103.605 50.938 103.699 51.0248C103.794 51.1116 103.841 51.222 103.841 51.3561C103.841 51.4902 103.794 51.6007 103.699 51.6874C103.605 51.7663 103.49 51.8058 103.356 51.8058H100.102L100.185 51.6993V54.7639L100.114 54.6811H103.889C104.023 54.6811 104.137 54.7284 104.232 54.8231C104.326 54.9177 104.374 55.0242 104.374 55.1425C104.374 55.2766 104.326 55.3871 104.232 55.4738C104.137 55.5606 104.023 55.604 103.889 55.604H99.6761C99.542 55.604 99.4277 55.5567 99.333 55.462C99.2462 55.3674 99.2028 55.253 99.2028 55.1189V47.7945C99.2028 47.6604 99.2462 47.55 99.333 47.4632C99.4277 47.3686 99.542 47.3212 99.6761 47.3212ZM114.778 54.6692C114.912 54.6692 115.027 54.7166 115.121 54.8112C115.216 54.898 115.263 55.0084 115.263 55.1425C115.263 55.2766 115.216 55.3871 115.121 55.4738C115.027 55.5606 114.912 55.604 114.778 55.604H110.684C110.55 55.604 110.436 55.5567 110.341 55.462C110.254 55.3674 110.211 55.253 110.211 55.1189V47.7945C110.211 47.6604 110.258 47.55 110.353 47.4632C110.447 47.3686 110.566 47.3212 110.708 47.3212C110.842 47.3212 110.956 47.3686 111.051 47.4632C111.146 47.55 111.193 47.6604 111.193 47.7945V54.8822L110.956 54.6692H114.778ZM131.963 47.3212C132.658 47.3212 133.19 47.5027 133.561 47.8655C133.94 48.2205 134.129 48.7254 134.129 49.3801C134.129 49.7272 134.05 50.0467 133.892 50.3385C133.734 50.6304 133.502 50.8631 133.194 51.0367C132.894 51.2102 132.524 51.3049 132.082 51.3206L132.058 50.9893C132.334 50.9893 132.618 51.0288 132.91 51.1076C133.202 51.1865 133.47 51.3127 133.715 51.4863C133.967 51.6598 134.168 51.8886 134.318 52.1726C134.476 52.4566 134.555 52.8076 134.555 53.2257C134.555 53.6753 134.48 54.0539 134.33 54.3616C134.18 54.6613 133.979 54.9059 133.727 55.0952C133.482 55.2766 133.206 55.4068 132.898 55.4857C132.599 55.5646 132.295 55.604 131.987 55.604H128.875C128.741 55.604 128.627 55.5567 128.532 55.462C128.445 55.3674 128.402 55.253 128.402 55.1189V47.7945C128.402 47.6604 128.445 47.55 128.532 47.4632C128.627 47.3686 128.741 47.3212 128.875 47.3212H131.963ZM131.822 48.256H129.278L129.42 48.043V50.9893L129.289 50.8355H131.845C132.192 50.8355 132.488 50.7251 132.733 50.5042C132.985 50.2754 133.111 49.9402 133.111 49.4984C133.111 49.104 132.997 48.8003 132.768 48.5873C132.539 48.3664 132.224 48.256 131.822 48.256ZM131.916 51.7821H129.337L129.42 51.6993V54.7876L129.325 54.6811H131.952C132.417 54.6811 132.796 54.5627 133.088 54.3261C133.387 54.0894 133.537 53.7226 133.537 53.2257C133.537 52.8391 133.458 52.5433 133.301 52.3382C133.143 52.1252 132.938 51.9793 132.685 51.9004C132.441 51.8215 132.184 51.7821 131.916 51.7821ZM147.858 51.4626C147.858 52.07 147.76 52.634 147.563 53.1547C147.365 53.6674 147.089 54.1171 146.734 54.5036C146.379 54.8901 145.957 55.1899 145.468 55.4029C144.979 55.6158 144.447 55.7223 143.871 55.7223C143.287 55.7223 142.751 55.6158 142.262 55.4029C141.78 55.1899 141.362 54.8901 141.007 54.5036C140.652 54.1171 140.376 53.6674 140.179 53.1547C139.982 52.634 139.883 52.07 139.883 51.4626C139.883 50.8473 139.982 50.2833 140.179 49.7706C140.376 49.2499 140.652 48.8003 141.007 48.4217C141.362 48.0351 141.78 47.7354 142.262 47.5224C142.751 47.3094 143.287 47.2029 143.871 47.2029C144.447 47.2029 144.979 47.3094 145.468 47.5224C145.957 47.7354 146.379 48.0351 146.734 48.4217C147.089 48.8003 147.365 49.2499 147.563 49.7706C147.76 50.2833 147.858 50.8473 147.858 51.4626ZM146.841 51.4626C146.841 50.8158 146.711 50.2439 146.45 49.7469C146.198 49.2499 145.851 48.8595 145.409 48.5755C144.967 48.2915 144.455 48.1495 143.871 48.1495C143.287 48.1495 142.77 48.2915 142.321 48.5755C141.879 48.8595 141.532 49.2499 141.279 49.7469C141.027 50.2439 140.901 50.8158 140.901 51.4626C140.901 52.1016 141.027 52.6735 141.279 53.1783C141.532 53.6753 141.879 54.0658 142.321 54.3498C142.77 54.6337 143.287 54.7757 143.871 54.7757C144.455 54.7757 144.967 54.6337 145.409 54.3498C145.851 54.0658 146.198 53.6753 146.45 53.1783C146.711 52.6735 146.841 52.1016 146.841 51.4626ZM161.154 51.4626C161.154 52.07 161.056 52.634 160.858 53.1547C160.661 53.6674 160.385 54.1171 160.03 54.5036C159.675 54.8901 159.253 55.1899 158.764 55.4029C158.275 55.6158 157.743 55.7223 157.167 55.7223C156.583 55.7223 156.047 55.6158 155.557 55.4029C155.076 55.1899 154.658 54.8901 154.303 54.5036C153.948 54.1171 153.672 53.6674 153.475 53.1547C153.278 52.634 153.179 52.07 153.179 51.4626C153.179 50.8473 153.278 50.2833 153.475 49.7706C153.672 49.2499 153.948 48.8003 154.303 48.4217C154.658 48.0351 155.076 47.7354 155.557 47.5224C156.047 47.3094 156.583 47.2029 157.167 47.2029C157.743 47.2029 158.275 47.3094 158.764 47.5224C159.253 47.7354 159.675 48.0351 160.03 48.4217C160.385 48.8003 160.661 49.2499 160.858 49.7706C161.056 50.2833 161.154 50.8473 161.154 51.4626ZM160.137 51.4626C160.137 50.8158 160.006 50.2439 159.746 49.7469C159.494 49.2499 159.147 48.8595 158.705 48.5755C158.263 48.2915 157.75 48.1495 157.167 48.1495C156.583 48.1495 156.066 48.2915 155.617 48.5755C155.175 48.8595 154.828 49.2499 154.575 49.7469C154.323 50.2439 154.197 50.8158 154.197 51.4626C154.197 52.1016 154.323 52.6735 154.575 53.1783C154.828 53.6753 155.175 54.0658 155.617 54.3498C156.066 54.6337 156.583 54.7757 157.167 54.7757C157.75 54.7757 158.263 54.6337 158.705 54.3498C159.147 54.0658 159.494 53.6753 159.746 53.1783C160.006 52.6735 160.137 52.1016 160.137 51.4626ZM172.829 55.6277C172.687 55.6277 172.569 55.5685 172.474 55.4502L169.327 51.439L170.048 50.7053L173.255 54.8112C173.326 54.9138 173.362 55.0203 173.362 55.1307C173.362 55.2885 173.302 55.4107 173.184 55.4975C173.074 55.5843 172.955 55.6277 172.829 55.6277ZM172.794 47.3094C172.92 47.3094 173.022 47.3607 173.101 47.4632C173.188 47.5658 173.231 47.6723 173.231 47.7827C173.231 47.8931 173.184 47.9957 173.089 48.0904L167.859 53.0363L167.777 51.9359L172.415 47.4869C172.533 47.3686 172.659 47.3094 172.794 47.3094ZM167.469 55.604C167.319 55.604 167.201 55.5567 167.114 55.462C167.027 55.3674 166.984 55.253 166.984 55.1189V47.8064C166.984 47.6644 167.031 47.55 167.126 47.4632C167.22 47.3686 167.339 47.3212 167.481 47.3212C167.631 47.3212 167.749 47.3686 167.836 47.4632C167.923 47.55 167.966 47.6644 167.966 47.8064V55.1189C167.966 55.253 167.919 55.3674 167.824 55.462C167.737 55.5567 167.619 55.604 167.469 55.604ZM180.141 55.1189C180.141 55.253 180.09 55.3674 179.987 55.462C179.892 55.5567 179.778 55.604 179.644 55.604C179.494 55.604 179.376 55.5567 179.289 55.462C179.202 55.3674 179.159 55.253 179.159 55.1189V47.8064C179.159 47.6644 179.206 47.55 179.301 47.4632C179.395 47.3686 179.514 47.3212 179.656 47.3212C179.79 47.3212 179.904 47.3686 179.999 47.4632C180.094 47.55 180.141 47.6644 180.141 47.8064V55.1189ZM192.61 47.3212C192.744 47.3212 192.851 47.3646 192.929 47.4514C193.008 47.5303 193.048 47.6328 193.048 47.759V55.107C193.048 55.2569 193 55.3792 192.906 55.4738C192.811 55.5606 192.697 55.604 192.563 55.604C192.492 55.604 192.421 55.5922 192.35 55.5685C192.279 55.537 192.223 55.4975 192.184 55.4502L187.12 48.753L187.356 48.611V55.1662C187.356 55.2924 187.313 55.3989 187.226 55.4857C187.147 55.5646 187.041 55.604 186.907 55.604C186.78 55.604 186.678 55.5646 186.599 55.4857C186.52 55.3989 186.481 55.2924 186.481 55.1662V47.7945C186.481 47.6525 186.524 47.5382 186.611 47.4514C186.705 47.3646 186.816 47.3212 186.942 47.3212C187.013 47.3212 187.084 47.337 187.155 47.3686C187.234 47.3922 187.293 47.4317 187.333 47.4869L192.326 54.0894L192.172 54.2788V47.759C192.172 47.6328 192.212 47.5303 192.29 47.4514C192.377 47.3646 192.484 47.3212 192.61 47.3212ZM203.158 55.7223C202.551 55.7223 201.987 55.6158 201.466 55.4029C200.953 55.182 200.5 54.8783 200.105 54.4918C199.719 54.1052 199.415 53.6556 199.194 53.1428C198.981 52.6222 198.875 52.0621 198.875 51.4626C198.875 50.8552 198.981 50.2951 199.194 49.7824C199.415 49.2618 199.719 48.8082 200.105 48.4217C200.5 48.0351 200.953 47.7354 201.466 47.5224C201.987 47.3094 202.551 47.2029 203.158 47.2029C203.561 47.2029 203.947 47.2502 204.318 47.3449C204.696 47.4317 205.04 47.5697 205.347 47.759C205.426 47.7985 205.481 47.8537 205.513 47.9247C205.552 47.9957 205.572 48.0706 205.572 48.1495C205.572 48.2836 205.525 48.398 205.43 48.4927C205.343 48.5873 205.241 48.6346 205.122 48.6346C205.075 48.6346 205.028 48.6268 204.98 48.611C204.941 48.5952 204.898 48.5794 204.85 48.5637C204.606 48.4374 204.341 48.3388 204.058 48.2678C203.774 48.189 203.474 48.1495 203.158 48.1495C202.535 48.1495 201.975 48.2954 201.478 48.5873C200.989 48.8792 200.602 49.2736 200.318 49.7706C200.034 50.2675 199.892 50.8316 199.892 51.4626C199.892 52.0858 200.034 52.6498 200.318 53.1547C200.602 53.6516 200.989 54.0461 201.478 54.3379C201.975 54.6298 202.535 54.7757 203.158 54.7757C203.474 54.7757 203.797 54.7323 204.129 54.6456C204.468 54.5588 204.756 54.4484 204.992 54.3143L204.909 54.5982V52.1016L205.099 52.2672H203.288C203.154 52.2672 203.04 52.2238 202.945 52.1371C202.858 52.0424 202.815 51.928 202.815 51.7939C202.815 51.6598 202.858 51.5494 202.945 51.4626C203.04 51.368 203.154 51.3206 203.288 51.3206H205.442C205.584 51.3206 205.698 51.368 205.785 51.4626C205.872 51.5573 205.915 51.6717 205.915 51.8058V54.5391C205.915 54.6337 205.892 54.7166 205.844 54.7876C205.805 54.8586 205.75 54.9177 205.679 54.9651C205.324 55.1938 204.929 55.3792 204.495 55.5212C204.069 55.6553 203.624 55.7223 203.158 55.7223Z" fill="white"/>
</g>
<defs>
<filter id="filter0_dd_46_7131" x="0" y="-7.62939e-06" width="213.716" height="60.7223" filterUnits="userSpaceOnUse" color-interpolation-filters="sRGB">
<feFlood flood-opacity="0" result="BackgroundImageFix"/>
<feColorMatrix in="SourceAlpha" type="matrix" values="0 0 0 0 0 0 0 0 0 0 0 0 0 0 0 0 0 0 127 0" result="hardAlpha"/>
<feOffset dy="1"/>
<feGaussianBlur stdDeviation="2"/>
<feComposite in2="hardAlpha" operator="out"/>
<feColorMatrix type="matrix" values="0 0 0 0 0.0470588 0 0 0 0 0.0470588 0 0 0 0 0.0509804 0 0 0 0.05 0"/>
<feBlend mode="normal" in2="BackgroundImageFix" result="effect1_dropShadow_46_7131"/>
<feColorMatrix in="SourceAlpha" type="matrix" values="0 0 0 0 0 0 0 0 0 0 0 0 0 0 0 0 0 0 127 0" result="hardAlpha"/>
<feOffset dy="1"/>
<feGaussianBlur stdDeviation="2"/>
<feComposite in2="hardAlpha" operator="out"/>
<feColorMatrix type="matrix" values="0 0 0 0 0.0470588 0 0 0 0 0.0470588 0 0 0 0 0.0509804 0 0 0 0.1 0"/>
<feBlend mode="normal" in2="effect1_dropShadow_46_7131" result="effect2_dropShadow_46_7131"/>
<feBlend mode="normal" in="SourceGraphic" in2="effect2_dropShadow_46_7131" result="shape"/>
</filter>
</defs>
</svg>
