<svg
  width="15"
  height="14"
  viewBox="0 0 15 14"
  fill="none"
  xmlns="http://www.w3.org/2000/svg"
>
  <path
    d="M3.0825 2.17C3.975 2.275 4.605 2.605 5.25 3.25L6 4L3.5625 6.4375C3.795 6.5275 3.9825 6.64 4.14 6.73C4.4175 6.9025 4.5825 7 5.0025 7C5.4225 7 5.5875 6.9025 5.865 6.73C6.21 6.5275 6.675 6.25 7.5075 6.25C8.34 6.25 8.805 6.5275 9.1425 6.73C9.42 6.895 9.5925 7 10.005 7C10.4175 7 10.59 6.9025 10.8675 6.73C10.9575 6.6775 11.0625 6.6175 11.175 6.5575L6.36 1.75C5.415 0.805 4.53 0.4 3.225 0.2875C2.7 0.2425 2.25 0.67 2.25 1.195V1.2625C2.25 1.735 2.6175 2.11 3.0825 2.17ZM14.5125 12.1825C14.385 12.1375 14.2725 12.07 14.1375 11.98C13.8 11.7775 13.335 11.5 12.5025 11.5C11.67 11.5 11.205 11.7775 10.8675 11.98C10.59 12.1525 10.4175 12.25 10.005 12.25C9.5925 12.25 9.42 12.145 9.1425 11.98C8.805 11.7775 8.34 11.5 7.5075 11.5C6.675 11.5 6.21 11.7775 5.865 11.98C5.5875 12.1525 5.4225 12.25 5.0025 12.25C4.5825 12.25 4.4175 12.1525 4.14 11.98C3.8025 11.7775 3.3375 11.5 2.505 11.5C1.6725 11.5 1.2075 11.7775 0.8625 11.98C0.7275 12.0625 0.615 12.13 0.4875 12.1825C0.2025 12.28 0 12.52 0 12.82V12.91C0 13.4125 0.495 13.7575 0.975 13.5925C1.2525 13.495 1.4625 13.3675 1.6425 13.2625C1.92 13.0975 2.0925 13 2.505 13C2.9175 13 3.09 13.0975 3.3675 13.27C3.705 13.4725 4.17 13.75 5.0025 13.75C5.835 13.75 6.3 13.4725 6.645 13.27C6.9225 13.0975 7.0875 13 7.5075 13C7.92 13 8.0925 13.105 8.37 13.27C8.7075 13.4725 9.1725 13.75 10.005 13.75C10.8375 13.75 11.295 13.4725 11.64 13.27C11.9175 13.0975 12.0825 13 12.5025 13C12.915 13 13.0875 13.105 13.365 13.27C13.5375 13.375 13.7475 13.5025 14.025 13.6C14.4975 13.765 15 13.42 15 12.9175V12.8275C15 12.52 14.7975 12.28 14.5125 12.1825ZM0.8325 10.2625C1.185 10.165 1.44 10.015 1.65 9.895C1.9275 9.7225 2.1 9.625 2.5125 9.625C2.925 9.625 3.0975 9.73 3.375 9.895C3.7125 10.0975 4.1775 10.375 5.01 10.375C5.8425 10.375 6.3075 10.0975 6.645 9.895C6.9225 9.7225 7.0875 9.625 7.5075 9.625C7.92 9.625 8.0925 9.73 8.37 9.895C8.7075 10.0975 9.1725 10.375 10.005 10.375C10.8375 10.375 11.3025 10.0975 11.64 9.895C11.9175 9.7225 12.0825 9.625 12.5025 9.625C12.915 9.625 13.0875 9.73 13.365 9.895C13.5375 10 13.74 10.12 14.0025 10.2175C14.1127 10.2573 14.2308 10.2701 14.3469 10.2548C14.463 10.2396 14.5738 10.1968 14.67 10.13C14.7662 10.0632 14.845 9.97428 14.8998 9.87076C14.9546 9.76725 14.9838 9.65212 14.985 9.535V9.445C14.985 9.145 14.7825 8.905 14.505 8.8C14.3775 8.755 14.265 8.6875 14.1225 8.605C13.785 8.4025 13.32 8.125 12.4875 8.125C11.655 8.125 11.19 8.4025 10.8525 8.605C10.575 8.7775 10.4025 8.875 9.99 8.875C9.5775 8.875 9.405 8.77 9.1275 8.605C8.79 8.4025 8.325 8.125 7.4925 8.125C6.66 8.125 6.195 8.4025 5.8575 8.605C5.58 8.7775 5.415 8.875 4.995 8.875C4.5825 8.875 4.41 8.77 4.1325 8.605C3.795 8.4025 3.33 8.125 2.4975 8.125C1.665 8.125 1.2 8.4025 0.8625 8.605C0.7275 8.6875 0.615 8.755 0.4875 8.8075C0.2025 8.905 0 9.145 0 9.445V9.6175C0 10.0525 0.4125 10.3825 0.8325 10.2625ZM10.875 4C11.3723 4 11.8492 3.80246 12.2008 3.45083C12.5525 3.09919 12.75 2.62228 12.75 2.125C12.75 1.62772 12.5525 1.15081 12.2008 0.799175C11.8492 0.447544 11.3723 0.25 10.875 0.25C10.3777 0.25 9.90081 0.447544 9.54918 0.799175C9.19755 1.15081 9 1.62772 9 2.125C9 2.62228 9.19755 3.09919 9.54918 3.45083C9.90081 3.80246 10.3777 4 10.875 4Z"
    fill="black"
  />
</svg>